<?xml version="1.0" encoding="UTF-8"?>
<svg version="1.1" xmlns="http://www.w3.org/2000/svg" width="16" height="17">
<path d="M0 0 C5.28 0 10.56 0 16 0 C16 5.61 16 11.22 16 17 C10.72 17 5.44 17 0 17 C0 11.39 0 5.78 0 0 Z " fill="#15451F" transform="translate(0,0)"/>
<path d="M0 0 C0.66 0.66 1.32 1.32 2 2 C4.57061311 2.64767793 4.57061311 2.64767793 7 3 C6.814375 3.763125 6.62875 4.52625 6.4375 5.3125 C5.77180827 8.08967375 5.77180827 8.08967375 7 11 C5.68 11 4.36 11 3 11 C2.34 9.68 1.68 8.36 1 7 C1 9.62113708 1.31292445 11.50935112 2 14 C1.01 14 0.02 14 -1 14 C-1.33 13.34 -1.66 12.68 -2 12 C-4.02463255 11.34786708 -4.02463255 11.34786708 -6 11 C-5.79375 10.4225 -5.5875 9.845 -5.375 9.25 C-4.91338739 6.48032433 -5.57055055 5.35438733 -7 3 C-5.02 3 -3.04 3 -1 3 C-0.67 2.01 -0.34 1.02 0 0 Z " fill="#8CA37F" transform="translate(7,1)"/>
<path d="M0 0 C2.875 0.5625 2.875 0.5625 6 2 C7.40313578 5.50783945 8 8.23006774 8 12 C7.38125 11.2884375 7.38125 11.2884375 6.75 10.5625 C4.817815 8.83733482 3.51807725 8.43415125 1 8 C1.20625 7.4225 1.4125 6.845 1.625 6.25 C2.08661261 3.48032433 1.42944945 2.35438733 0 0 Z " fill="#74855B" transform="translate(0,4)"/>
<path d="M0 0 C1.5 1.3125 1.5 1.3125 3 3 C3 3.99 3 4.98 3 6 C4.32 6.33 5.64 6.66 7 7 C2.25 8 2.25 8 0 8 C-0.79953138 4.71303767 -1.09658936 3.28976808 0 0 Z " fill="#3C572B" transform="translate(7,6)"/>
</svg>
