<?xml version="1.0" encoding="UTF-8"?>
<svg version="1.1" xmlns="http://www.w3.org/2000/svg" width="32" height="34">
<path d="M0 0 C10.56 0 21.12 0 32 0 C32 11.22 32 22.44 32 34 C21.44 34 10.88 34 0 34 C0 22.78 0 11.56 0 0 Z " fill="#0D421C" transform="translate(0,0)"/>
<path d="M0 0 C1.9375 0.8125 1.9375 0.8125 4 2 C4.33 2.99 4.66 3.98 5 5 C8.3 5.33 11.6 5.66 15 6 C14.67 6.680625 14.34 7.36125 14 8.0625 C12.17774132 13.41538487 12.54602513 17.93867683 15 23 C11.7 23 8.4 23 5 23 C5 23.99 5 24.98 5 26 C4.34 26 3.68 26 3 26 C2.67 27.32 2.34 28.64 2 30 C1.01 29.67 0.02 29.34 -1 29 C-2.1875 25.9375 -2.1875 25.9375 -3 23 C-5.97 23 -8.94 23 -12 23 C-10.46688715 17.48431813 -7.81247556 12.97965148 -4.875 8.125 C-4.40707031 7.34125 -3.93914063 6.5575 -3.45703125 5.75 C-2.30981892 3.83017528 -1.1573993 1.91369439 0 0 Z " fill="#415733" transform="translate(14,2)"/>
<path d="M0 0 C4.455 0.99 4.455 0.99 9 2 C8.46105575 6.59808129 7.23428472 9.86784369 4.9375 13.875 C4.38964844 14.84179688 3.84179688 15.80859375 3.27734375 16.8046875 C2.85582031 17.52914063 2.43429687 18.25359375 2 19 C4.97 19 7.94 19 11 19 C11.99 20.98 12.98 22.96 14 25 C16.97 25 19.94 25 23 25 C23 24.34 23 23.68 23 23 C24.98 23 26.96 23 29 23 C29 23.66 29 24.32 29 25 C29.99 25 30.98 25 32 25 C32 25.99 32 26.98 32 28 C21.44 28 10.88 28 0 28 C0 18.76 0 9.52 0 0 Z " fill="#0C4420" transform="translate(0,6)"/>
<path d="M0 0 C0.66 0 1.32 0 2 0 C0.3003494 4.73474097 -2.13659027 8.96167111 -4.625 13.3125 C-5.04523437 14.05306641 -5.46546875 14.79363281 -5.8984375 15.55664062 C-6.92948495 17.37269011 -7.96436046 19.18656533 -9 21 C-3.72 21 1.56 21 7 21 C6.175 19.55625 5.35 18.1125 4.5 16.625 C2 12.25 2 12.25 2 10 C2.66 10 3.32 10 4 10 C5.5078125 12.1171875 5.5078125 12.1171875 7.125 14.875 C7.66382812 15.77992187 8.20265625 16.68484375 8.7578125 17.6171875 C10 20 10 20 10 22 C7.03 22.33 4.06 22.66 1 23 C0.67 23.99 0.34 24.98 0 26 C1.32 25.34 2.64 24.68 4 24 C3.34 25.98 2.68 27.96 2 30 C1.01 29.67 0.02 29.34 -1 29 C-2.1875 25.9375 -2.1875 25.9375 -3 23 C-5.97 23 -8.94 23 -12 23 C-10.46048671 17.52423114 -7.87914994 12.97842418 -5 8.125 C-4.54882812 7.34125 -4.09765625 6.5575 -3.6328125 5.75 C-3.19710938 5.01007812 -2.76140625 4.27015625 -2.3125 3.5078125 C-1.91675781 2.83379395 -1.52101563 2.15977539 -1.11328125 1.46533203 C-0.74589844 0.98177246 -0.37851563 0.49821289 0 0 Z " fill="#85996B" transform="translate(14,2)"/>
<path d="M0 0 C0.66 0 1.32 0 2 0 C2.33 0.66 2.66 1.32 3 2 C5.35599235 2.46751788 5.35599235 2.46751788 8.0625 2.625 C9.44115234 2.73714844 9.44115234 2.73714844 10.84765625 2.8515625 C11.55792969 2.90054687 12.26820312 2.94953125 13 3 C12.67 3.680625 12.34 4.36125 12 5.0625 C10.41328754 9.72346785 10.4992606 14.31018938 12 19 C11.34 19 10.68 19 10 19 C8.52690889 16.89980986 7.18690365 14.82232271 5.875 12.625 C5.31619141 11.72007813 5.31619141 11.72007813 4.74609375 10.796875 C2 6.27034684 2 6.27034684 2 4 C1.34 4 0.68 4 0 4 C-0.28875 4.804375 -0.5775 5.60875 -0.875 6.4375 C-2 9 -2 9 -4 10 C-3.43697042 6.05879291 -2.3208055 3.2491277 0 0 Z " fill="#CADEBF" transform="translate(16,5)"/>
<path d="M0 0 C4.455 0.99 4.455 0.99 9 2 C8.46105575 6.59808129 7.23428472 9.86784369 4.9375 13.875 C4.38964844 14.84179688 3.84179688 15.80859375 3.27734375 16.8046875 C2.85582031 17.52914063 2.43429687 18.25359375 2 19 C1.34 19 0.68 19 0 19 C0 12.73 0 6.46 0 0 Z " fill="#154316" transform="translate(0,6)"/>
<path d="M0 0 C0.66 0.66 1.32 1.32 2 2 C1.34 2 0.68 2 0 2 C-0.26554688 2.70511719 -0.53109375 3.41023437 -0.8046875 4.13671875 C-2.06498967 7.15567786 -3.53957994 9.95185076 -5.125 12.8125 C-5.93324219 14.27623047 -5.93324219 14.27623047 -6.7578125 15.76953125 C-7.16773438 16.50558594 -7.57765625 17.24164062 -8 18 C-4.7 18 -1.4 18 2 18 C2 17.34 2 16.68 2 16 C-0.31 16 -2.62 16 -5 16 C-5 15.67 -5 15.34 -5 15 C-3.02 15 -1.04 15 1 15 C1.33 14.34 1.66 13.68 2 13 C5 17.75 5 17.75 5 20 C-0.28 20 -5.56 20 -11 20 C-9.75826576 16.8956644 -8.7118012 14.30709821 -7.08984375 11.484375 C-6.73986328 10.87335937 -6.38988281 10.26234375 -6.02929688 9.6328125 C-5.66900391 9.01148438 -5.30871094 8.39015625 -4.9375 7.75 C-4.57333984 7.11320313 -4.20917969 6.47640625 -3.83398438 5.8203125 C-1.14074248 1.14074248 -1.14074248 1.14074248 0 0 Z " fill="#424D24" transform="translate(16,3)"/>
<path d="M0 0 C0.66 0 1.32 0 2 0 C0.3003494 4.73474097 -2.13659027 8.96167111 -4.625 13.3125 C-5.04523437 14.05306641 -5.46546875 14.79363281 -5.8984375 15.55664062 C-6.92948495 17.37269011 -7.96436046 19.18656533 -9 21 C-7.02 21 -5.04 21 -3 21 C-3 21.33 -3 21.66 -3 22 C-5.97 22 -8.94 22 -12 22 C-4.20739762 6.01056803 -4.20739762 6.01056803 0 0 Z " fill="#ACB990" transform="translate(14,2)"/>
<path d="M0 0 C3.3 0 6.6 0 10 0 C9.690625 0.70125 9.38125 1.4025 9.0625 2.125 C7.96697322 5.08936657 7.43577008 7.87698108 7 11 C4.04250209 7.53258866 1.92151848 4.13126473 0 0 Z " fill="#485E3A" transform="translate(19,8)"/>
<path d="M0 0 C0.66 0.33 1.32 0.66 2 1 C2 1.66 2 2.32 2 3 C3.32 2.67 4.64 2.34 6 2 C6.33 3.65 6.66 5.3 7 7 C3.7 7 0.4 7 -3 7 C-1.125 2.25 -1.125 2.25 0 0 Z " fill="#7A8257" transform="translate(11,14)"/>
<path d="M0 0 C3.63 0 7.26 0 11 0 C11 0.99 11 1.98 11 3 C10.01 2.67 9.02 2.34 8 2 C5.93381251 2.09268505 5.93381251 2.09268505 3.8125 2.4375 C2.554375 2.623125 1.29625 2.80875 0 3 C0 2.01 0 1.02 0 0 Z " fill="#0F4117" transform="translate(0,25)"/>
<path d="M0 0 C2.64 0 5.28 0 8 0 C8 0.66 8 1.32 8 2 C6.35 2 4.7 2 3 2 C3.66 3.65 4.32 5.3 5 7 C4.34 7 3.68 7 3 7 C0 2.61538462 0 2.61538462 0 0 Z " fill="#85936D" transform="translate(1,8)"/>
<path d="M0 0 C2.64 0 5.28 0 8 0 C6.125 4.75 6.125 4.75 5 7 C4.34 7 3.68 7 3 7 C3.66 5.35 4.32 3.7 5 2 C3.35 2 1.7 2 0 2 C0 1.34 0 0.68 0 0 Z " fill="#B2C8A4" transform="translate(21,8)"/>
<path d="M0 0 C1.65 0 3.3 0 5 0 C4.01 0.495 4.01 0.495 3 1 C2.7834375 1.9590625 2.7834375 1.9590625 2.5625 2.9375 C2 5 2 5 -1 7 C-1.33 5.68 -1.66 4.36 -2 3 C-1.34 3 -0.68 3 0 3 C0 2.01 0 1.02 0 0 Z " fill="#204318" transform="translate(19,25)"/>
<path d="M0 0 C0.99 0.33 1.98 0.66 3 1 C1.68 3.31 0.36 5.62 -1 8 C-1.66 8 -2.32 8 -3 8 C-3.1875 5.125 -3.1875 5.125 -3 2 C-2.01 1.34 -1.02 0.68 0 0 Z " fill="#2A5029" transform="translate(3,17)"/>
<path d="M0 0 C0.66 0 1.32 0 2 0 C2.83848804 1.45537568 3.67063934 2.91440373 4.5 4.375 C5.19609375 5.59316406 5.19609375 5.59316406 5.90625 6.8359375 C7 9 7 9 7 11 C6.34 11 5.68 11 5 11 C4.16151196 9.54462432 3.32936066 8.08559627 2.5 6.625 C1.80390625 5.40683594 1.80390625 5.40683594 1.09375 4.1640625 C0 2 0 2 0 0 Z " fill="#A8B695" transform="translate(16,12)"/>
<path d="M0 0 C2.97 0 5.94 0 9 0 C6.66666667 2.33333333 4.33333333 4.66666667 2 7 C1.34 4.69 0.68 2.38 0 0 Z " fill="#1D4821" transform="translate(9,0)"/>
<path d="M0 0 C0.99 0 1.98 0 3 0 C3 0.66 3 1.32 3 2 C4.32 1.34 5.64 0.68 7 0 C6.34 1.98 5.68 3.96 5 6 C4.01 5.67 3.02 5.34 2 5 C0.8125 2.4375 0.8125 2.4375 0 0 Z " fill="#B6D0A3" transform="translate(11,26)"/>
<path d="M0 0 C1.22589844 0.01353516 1.22589844 0.01353516 2.4765625 0.02734375 C3.41628906 0.04474609 3.41628906 0.04474609 4.375 0.0625 C4.375 0.3925 4.375 0.7225 4.375 1.0625 C2.725 1.0625 1.075 1.0625 -0.625 1.0625 C-0.955 2.0525 -1.285 3.0425 -1.625 4.0625 C-2.945 4.0625 -4.265 4.0625 -5.625 4.0625 C-5.955 3.0725 -6.285 2.0825 -6.625 1.0625 C-4.21954362 -0.14022819 -2.67503047 -0.03821472 0 0 Z " fill="#475B28" transform="translate(19.625,23.9375)"/>
<path d="M0 0 C0.66 0 1.32 0 2 0 C0.66511872 3.59391114 -0.96022723 6.75490696 -3 10 C-4 7 -4 7 -3.22265625 5.17578125 C-2.1484375 3.45052083 -1.07421875 1.72526042 0 0 Z " fill="#C1D3B4" transform="translate(14,2)"/>
<path d="M0 0 C0.33 0.99 0.66 1.98 1 3 C1.66 3 2.32 3 3 3 C3 3.99 3 4.98 3 6 C1.02 6.33 -0.96 6.66 -3 7 C-1.125 2.25 -1.125 2.25 0 0 Z " fill="#1F4722" transform="translate(29,8)"/>
<path d="M0 0 C1.65 0 3.3 0 5 0 C4.34 1.98 3.68 3.96 3 6 C2.01 5.67 1.02 5.34 0 5 C0.66 5 1.32 5 2 5 C1.34 3.35 0.68 1.7 0 0 Z " fill="#424720" transform="translate(4,10)"/>
<path d="M0 0 C2.79872437 2.52788007 4.45773019 4.20411134 5 8 C4.34 8 3.68 8 3 8 C1.02 4.535 1.02 4.535 -1 1 C-0.67 0.67 -0.34 0.34 0 0 Z " fill="#B2C29F" transform="translate(23,16)"/>
</svg>
